name C:/MyDriveSym/Projects/mobilecap/Data\Session20210910_0002\mocap\ForceDataProcessed\walkingTS3_forces.mot
datacolumns 19
datarows 19
range 0.00000000 0.00900000
endheader 
time	R_ground_force_vx	R_ground_force_vy	R_ground_force_vz	R_ground_force_px	R_ground_force_py	R_ground_force_pz	R_ground_torque_x	R_ground_torque_y	R_ground_torque_z	L_ground_force_vx	L_ground_force_vy	L_ground_force_vz	L_ground_force_px	L_ground_force_py	L_ground_force_pz	L_ground_torque_x	L_ground_torque_y	L_ground_torque_z	
          0.00000000	        -97.33878500	        504.06455900	         27.24977500	          0.10407000	          0.00600000	         -0.22190700	          0.00000000	          0.58191500	          0.00000000	          0.00000000	          0.00000000	          0.00000000	          0.62514100	          0.00000000	         -0.37134300	          0.00000000	          0.00000000	          0.00000000	
          0.00050000	        -97.70274100	        505.23448800	         26.99978800	          0.10407000	          0.00600000	         -0.22190700	          0.00000000	          0.57314500	          0.00000000	          0.00000000	          0.00000000	          0.00000000	          0.62514100	          0.00000000	         -0.37134300	          0.00000000	          0.00000000	          0.00000000	
          0.00100000	        -98.06813800	        506.41214900	         26.74784900	          0.10407000	          0.00600000	         -0.22190700	          0.00000000	          0.56437800	          0.00000000	          0.00000000	          0.00000000	          0.00000000	          0.62514100	          0.00000000	         -0.37134300	          0.00000000	          0.00000000	          0.00000000	
          0.00150000	        -98.43494500	        507.59749500	         26.49396300	          0.10407000	          0.00600000	         -0.22190700	          0.00000000	          0.55561500	          0.00000000	          0.00000000	          0.00000000	          0.00000000	          0.62514100	          0.00000000	         -0.37134300	          0.00000000	          0.00000000	          0.00000000	
          0.00200000	        -98.80312900	        508.79047800	         26.23813500	          0.10430800	          0.00600000	         -0.22183400	          0.00000000	          0.54685800	          0.00000000	          0.00000000	          0.00000000	          0.00000000	          0.62514100	          0.00000000	         -0.37134300	          0.00000000	          0.00000000	          0.00000000	
          0.00250000	        -99.17266000	        509.99105100	         25.98037200	          0.10454700	          0.00600000	         -0.22176000	          0.00000000	          0.53811000	          0.00000000	          0.00000000	          0.00000000	          0.00000000	          0.62514100	          0.00000000	         -0.37134300	          0.00000000	          0.00000000	          0.00000000	
          0.00300000	        -99.54350500	        511.19916400	         25.72068100	          0.10478700	          0.00600000	         -0.22168500	          0.00000000	          0.52937000	          0.00000000	          0.00000000	          0.00000000	          0.00000000	          0.62514100	          0.00000000	         -0.37134300	          0.00000000	          0.00000000	          0.00000000	
          0.00350000	        -99.91563200	        512.41476500	         25.45906700	          0.10502800	          0.00600000	         -0.22161100	          0.00000000	          0.52064200	          0.00000000	          0.00000000	          0.00000000	          0.00000000	          0.62514100	          0.00000000	         -0.37134300	          0.00000000	          0.00000000	          0.00000000	
          0.00400000	       -100.28900900	        513.63780400	         25.19554000	          0.10526900	          0.00600000	         -0.22153600	          0.00000000	          0.51192600	          0.00000000	          0.00000000	          0.00000000	          0.00000000	          0.62514100	          0.00000000	         -0.37134300	          0.00000000	          0.00000000	          0.00000000	
          0.00450000	       -100.66360200	        514.86822800	         24.93010700	          0.10551200	          0.00600000	         -0.22146100	          0.00000000	          0.50322500	          0.00000000	          0.00000000	          0.00000000	          0.00000000	          0.62514100	          0.00000000	         -0.37134300	          0.00000000	          0.00000000	          0.00000000	
          0.00500000	       -101.03938000	        516.10598400	         24.66277600	          0.10575500	          0.00600000	         -0.22138600	          0.00000000	          0.49454100	          0.00000000	          0.00000000	          0.00000000	          0.00000000	          0.62514100	          0.00000000	         -0.37134300	          0.00000000	          0.00000000	          0.00000000	
          0.00550000	       -101.41630900	        517.35101700	         24.39355600	          0.10599900	          0.00600000	         -0.22131100	          0.00000000	          0.48587400	          0.00000000	          0.00000000	          0.00000000	          0.00000000	          0.62514100	          0.00000000	         -0.37134300	          0.00000000	          0.00000000	          0.00000000	
          0.00600000	       -101.79435600	        518.60327400	         24.12245700	          0.10624400	          0.00600000	         -0.22123500	          0.00000000	          0.47722700	          0.00000000	          0.00000000	          0.00000000	          0.00000000	          0.62514100	          0.00000000	         -0.37134300	          0.00000000	          0.00000000	          0.00000000	
          0.00650000	       -102.17348700	        519.86269900	         23.84948800	          0.10649000	          0.00600000	         -0.22115900	          0.00000000	          0.46860100	          0.00000000	          0.00000000	          0.00000000	          0.00000000	          0.62514100	          0.00000000	         -0.37134300	          0.00000000	          0.00000000	          0.00000000	
          0.00700000	       -102.55367100	        521.12923600	         23.57466100	          0.10673600	          0.00600000	         -0.22108300	          0.00000000	          0.45999800	          0.00000000	          0.00000000	          0.00000000	          0.00000000	          0.62514100	          0.00000000	         -0.37134300	          0.00000000	          0.00000000	          0.00000000	
          0.00750000	       -102.93487200	        522.40282900	         23.29798500	          0.10698300	          0.00600000	         -0.22100700	          0.00000000	          0.45142000	          0.00000000	          0.00000000	          0.00000000	          0.00000000	          0.62514100	          0.00000000	         -0.37134300	          0.00000000	          0.00000000	          0.00000000	
          0.00800000	       -103.31705900	        523.68342200	         23.01947200	          0.10723100	          0.00600000	         -0.22093000	          0.00000000	          0.44286800	          0.00000000	          0.00000000	          0.00000000	          0.00000000	          0.62514100	          0.00000000	         -0.37134300	          0.00000000	          0.00000000	          0.00000000	
          0.00850000	       -103.70019700	        524.97095700	         22.73913400	          0.10747900	          0.00600000	         -0.22085300	          0.00000000	          0.43434500	          0.00000000	          0.00000000	          0.00000000	          0.00000000	          0.62514100	          0.00000000	         -0.37134300	          0.00000000	          0.00000000	          0.00000000	
          0.00900000	       -104.08425400	        526.26538000	         22.45698400	          0.10772800	          0.00600000	         -0.22077700	          0.00000000	          0.42585200	          0.00000000	          0.00000000	          0.00000000	          0.00000000	          0.62514100	          0.00000000	         -0.37134300	          0.00000000	          0.00000000	          0.00000000	
